{"title":"Talvar (2015) Hindi DVDRip x264 - Exclusive","uid":12838761,"size":771697699,"categoryP":"video","categoryS":"movies","magnet":"?xt=urn:btih:097a78587ee3783b20c239e6c15b76212c08b78e&amp;dn=Talvar+%282015%29+Hindi+DVDRip+x264+-+Exclusive&amp;tr=udp%3A%2F%2Ftracker.leechers-paradise.org%3A6969&amp;tr=udp%3A%2F%2Fzer0day.ch%3A1337&amp;tr=udp%3A%2F%2Fopen.demonii.com%3A1337&amp;tr=udp%3A%2F%2Ftracker.coppersurfer.tk%3A6969&amp;tr=udp%3A%2F%2Fexodus.desync.com%3A6969","seeders":1,"leechers":0,"uploader":"tykoon123","files":2,"time":1448482843,"description":"Format : Matroska \r\nFormat version : Version 2 \r\nFile size : 736 MiB \r\nDuration : 2h 13mn \r\nOverall bit rate : 770 Kbps \r\nWriting application : Lavf51.12.1 \r\nWriting library : Lavf51.12.1 \r\n\r\nVideo \r\nID : 1 \r\nFormat : AVC \r\nFormat/Info : Advanced Video Codec \r\nFormat profile :    \r\nFormat settings, CABAC : No \r\nFormat settings, ReFrames : 1 frame \r\nFormat settings, GOP : M=1, N=12 \r\nCodec ID : V_MPEG4/ISO/AVC \r\nDuration : 2h 13mn \r\nBit rate : 626 Kbps \r\nWidth : 720 pixels \r\nHeight : 304 pixels \r\nDisplay aspect ratio : 2.35:1 \r\nFrame rate mode : Constant \r\nFrame rate : 23.976 fps \r\nColor space : YUV \r\nChroma subsampling : 4:2:0 \r\nBit depth : 8 bits \r\nScan type : Progressive \r\nBits/(Pixel*Frame) : 0.119 \r\nStream size : 599 MiB (81%) \r\nDefault : Yes \r\nForced : No \r\n\r\nAudio \r\nID : 2 \r\nFormat : MPEG Audio \r\nFormat version : Version 1 \r\nFormat profile : Layer 2 \r\nCodec ID : A_MPEG/L2 \r\nCodec ID/Hint : MP2 \r\nDuration : 2h 13mn \r\nBit rate mode : Constant \r\nBit rate : 128 Kbps \r\nChannel(s) : 2 channels \r\nSampling rate : 44.1 KHz \r\nCompression mode : Lossy \r\nStream size : 122 MiB (17%) \r\nDefault : Yes \r\nForced : No \r\n\r\nScreens","torrent":{"xt":"urn:btih:097a78587ee3783b20c239e6c15b76212c08b78e","amp;dn":"Talvar+%282015%29+Hindi+DVDRip+x264+-+Exclusive","amp;tr":["udp%3A%2F%2Ftracker.leechers-paradise.org%3A6969","udp%3A%2F%2Fzer0day.ch%3A1337","udp%3A%2F%2Fopen.demonii.com%3A1337","udp%3A%2F%2Ftracker.coppersurfer.tk%3A6969","udp%3A%2F%2Fexodus.desync.com%3A6969"],"infoHash":"097a78587ee3783b20c239e6c15b76212c08b78e","infoHashBuffer":{"type":"Buffer","data":[9,122,120,88,126,227,120,59,32,194,57,230,193,91,118,33,44,8,183,142]},"announce":[],"urlList":[]}}